<svg width="1440" height="948" viewBox="0 0 1440 948" fill="none" xmlns="http://www.w3.org/2000/svg">
<path opacity="0.8" fill-rule="evenodd" clip-rule="evenodd" d="M270.5 852.5C213 872.5 142.5 896.567 75.4999 877C11.2636 858.24 -21.5001 813.5 -66.5001 758.5C-106.032 710.183 -101.11 667.203 -109.718 605.371C-119.919 532.088 -153.933 456.298 -122.688 389.221C-89.463 317.893 -83.0179 235.268 -28.0002 179C15.9998 134 118.808 123.347 184.5 164.5C230.492 193.312 302.065 272.053 350 297.5C471.5 362 599.462 273 611 443.5C616.451 524.043 507.5 678.5 437 746.5C379.555 801.908 333.134 830.714 270.5 852.5Z" fill="#C7199D"/>
<path fill-rule="evenodd" clip-rule="evenodd" d="M1089.96 -334.263C1139.43 -378.434 1195.61 -422.608 1261.9 -424.281C1328.8 -425.969 1389.72 -387.118 1440.1 -343.097C1487.12 -302.025 1507.11 -242.728 1534.13 -186.451C1566.16 -119.753 1621.64 -57.9176 1612.3 15.4881C1602.36 93.5456 1556.97 177.12 1484.1 206.815C1412.3 236.07 1383.09 145 1307.09 122C1254.51 108.559 1178.29 101.998 1127.09 84.0005C1049.27 56.6461 915.529 102.031 885.17 25.3424C855.457 -49.7173 953.584 -114.476 993.541 -184.639C1023.64 -237.491 1044.6 -293.75 1089.96 -334.263Z" fill="#C7199D"/>
</svg>
