<svg width="56" height="321" viewBox="0 0 56 321" fill="none" xmlns="http://www.w3.org/2000/svg">
<path fill-rule="evenodd" clip-rule="evenodd" d="M96.7676 0.680028C121.952 -0.858303 144.87 21.5675 165.362 42.5613C183.503 61.1464 193.486 87.6562 206.172 112.763C221.641 143.378 249.722 169.88 247.594 205.309C245.463 240.784 217.333 260.611 196.038 281.446C176.544 300.52 155.422 316.922 130.626 319.752C105.725 322.595 78.2189 318.534 58.143 297.187C39.0604 276.897 39.158 240.902 29.0962 211.796C19.3081 183.481 -0.993081 159.42 0.0516999 129.144C1.1439 97.4931 18.0974 72.545 34.6607 50.5447C52.0804 27.4068 71.3248 2.23411 96.7676 0.680028Z" fill="#C4C4C4"/>
<path fill-rule="evenodd" clip-rule="evenodd" d="M96.7676 0.680028C121.952 -0.858303 144.87 21.5675 165.362 42.5613C183.503 61.1464 193.486 87.6562 206.172 112.763C221.641 143.378 249.722 169.88 247.594 205.309C245.463 240.784 217.333 260.611 196.038 281.446C176.544 300.52 155.422 316.922 130.626 319.752C105.725 322.595 78.2189 318.534 58.143 297.187C39.0604 276.897 39.158 240.902 29.0962 211.796C19.3081 183.481 -0.993081 159.42 0.0516999 129.144C1.1439 97.4931 18.0974 72.545 34.6607 50.5447C52.0804 27.4068 71.3248 2.23411 96.7676 0.680028Z" fill="url(#paint0_linear_310_1039)" fill-opacity="0.96"/>
<defs>
<linearGradient id="paint0_linear_310_1039" x1="2.1772" y1="155.313" x2="90.1595" y2="156.63" gradientUnits="userSpaceOnUse">
<stop stop-color="#734192"/>
<stop offset="1" stop-color="#9B309D"/>
</linearGradient>
</defs>
</svg>
