<svg width="168" height="639" viewBox="0 0 168 639" fill="none" xmlns="http://www.w3.org/2000/svg">
<path fill-rule="evenodd" clip-rule="evenodd" d="M167.5 3.99941C225.755 -16.1308 320.091 67.3667 374.36 96.5839C422.404 122.449 452.901 166.756 489.515 207.211C534.163 256.543 607.966 292.395 611.704 358.826C615.446 425.344 553.075 475.085 507.31 523.502C465.415 567.824 418.959 607.972 360.329 624.766C301.449 641.632 234.617 646.962 181.255 616.899C130.534 588.323 121.795 521.794 90.463 472.728C59.9828 424.996 5.40548 390.023 0.35914 333.615C-4.91622 274.646 71.8481 227.861 106 179.5C156.491 108 71.9999 36.9999 167.5 3.99941Z" fill="#C4C4C4"/>
<path fill-rule="evenodd" clip-rule="evenodd" d="M167.5 3.99941C225.755 -16.1308 320.091 67.3667 374.36 96.5839C422.404 122.449 452.901 166.756 489.515 207.211C534.163 256.543 607.966 292.395 611.704 358.826C615.446 425.344 553.075 475.085 507.31 523.502C465.415 567.824 418.959 607.972 360.329 624.766C301.449 641.632 234.617 646.962 181.255 616.899C130.534 588.323 121.795 521.794 90.463 472.728C59.9828 424.996 5.40548 390.023 0.35914 333.615C-4.91622 274.646 71.8481 227.861 106 179.5C156.491 108 71.9999 36.9999 167.5 3.99941Z" fill="url(#paint0_linear_310_997)" fill-opacity="0.96"/>
<defs>
<linearGradient id="paint0_linear_310_997" x1="11.968" y1="380.96" x2="224.464" y2="356.498" gradientUnits="userSpaceOnUse">
<stop stop-color="#734192"/>
<stop offset="1" stop-color="#9B309D"/>
</linearGradient>
</defs>
</svg>
