<svg width="16" height="16" viewBox="0 0 16 16" fill="none" xmlns="http://www.w3.org/2000/svg">
<path d="M14.6667 3.86549C14.1709 4.08299 13.6425 4.22716 13.0917 4.29716C13.6584 3.95883 14.0909 3.42717 14.2942 2.78634C13.7659 3.10134 13.1825 3.32383 12.5609 3.448C12.0592 2.91384 11.3442 2.58301 10.5642 2.58301C9.05091 2.58301 7.83259 3.81133 7.83259 5.31714C7.83259 5.53381 7.85092 5.74214 7.89592 5.94047C5.62345 5.82964 3.61264 4.74048 2.26182 3.08134C2.02599 3.4905 1.88766 3.95883 1.88766 4.46299C1.88766 5.40964 2.37515 6.2488 3.10181 6.73463C2.66265 6.7263 2.23182 6.5988 1.86682 6.39797C1.86682 6.4063 1.86682 6.41713 1.86682 6.42797C1.86682 7.75628 2.81431 8.8596 4.0568 9.11377C3.8343 9.1746 3.5918 9.20377 3.34014 9.20377C3.16514 9.20377 2.98848 9.19377 2.82265 9.1571C3.17681 10.2396 4.1818 11.0354 5.37678 11.0612C4.44679 11.7887 3.26597 12.2271 1.98766 12.2271C1.76349 12.2271 1.54849 12.2171 1.3335 12.1896C2.54432 12.9704 3.9793 13.4162 5.52678 13.4162C10.5567 13.4162 13.3067 9.2496 13.3067 5.63797C13.3067 5.51714 13.3025 5.40048 13.2967 5.28464C13.8392 4.89965 14.295 4.41882 14.6667 3.86549Z" fill="#1C2661"/>
</svg>
